<svg width="29" height="29" viewBox="0 0 29 29" fill="none" xmlns="http://www.w3.org/2000/svg">
<path d="M18.0342 0.340648C18.3052 0.10856 18.6538 -0.0127151 19.0103 0.00105652C19.3669 0.0148282 19.7051 0.162632 19.9574 0.414933C20.2097 0.667234 20.3575 1.00545 20.3713 1.36199C20.385 1.71853 20.2638 2.06714 20.0317 2.33815L15.5833 6.71565L16.66 8.06148L19.4083 15.1448C19.5483 15.5183 19.5773 15.9243 19.4919 16.3139C19.4064 16.7035 19.2101 17.06 18.9267 17.3406L14.5492 21.7181C14.1422 22.0996 13.6053 22.3119 13.0475 22.3119C12.4897 22.3119 11.9528 22.0996 11.5458 21.7181L5.02917 15.2015C4.8439 15.0159 4.69817 14.7947 4.60078 14.5512C4.50339 14.3077 4.45635 14.047 4.4625 13.7848L3.75417 4.66148H5.27C5.46692 4.65454 5.66312 4.68875 5.84607 4.76193C6.02902 4.8351 6.19469 4.94564 6.3325 5.08648L6.53083 5.32731L8.01833 10.2573M8.01833 28.2631L0 20.2731L3.00333 17.2698L11.0217 25.2881M24.7917 3.47148C24.7917 3.47148 21.25 7.38148 21.25 9.84648C21.25 10.7858 21.6231 11.6866 22.2873 12.3508C22.9515 13.015 23.8524 13.3881 24.7917 13.3881C25.731 13.3881 26.6318 13.015 27.296 12.3508C27.9602 11.6866 28.3333 10.7858 28.3333 9.84648C28.3333 7.38148 24.7917 3.47148 24.7917 3.47148Z" fill="#81C8F2"/>
</svg>
