<svg width="26" height="22" viewBox="0 0 26 22" fill="none" xmlns="http://www.w3.org/2000/svg">
<path d="M12.75 21.25V18.2396L20.2583 10.7312L23.2687 13.7417L15.7604 21.25H12.75ZM0 14.1667V11.3333H9.91667V14.1667H0ZM24.2604 12.75L21.25 9.73958L22.2771 8.7125C22.5368 8.45278 22.8674 8.32292 23.2687 8.32292C23.6701 8.32292 24.0007 8.45278 24.2604 8.7125L25.2875 9.73958C25.5472 9.99931 25.6771 10.3299 25.6771 10.7312C25.6771 11.1326 25.5472 11.4632 25.2875 11.7229L24.2604 12.75ZM0 8.5V5.66667H15.5833V8.5H0ZM0 2.83333V0H15.5833V2.83333H0Z" fill="black" fill-opacity="0.89"/>
</svg>
