<svg width="34" height="34" viewBox="0 0 34 34" fill="none" xmlns="http://www.w3.org/2000/svg">
<path fill-rule="evenodd" clip-rule="evenodd" d="M22.6666 12.7499C22.6666 14.2528 22.0696 15.6942 21.0069 16.7569C19.9442 17.8196 18.5028 18.4166 16.9999 18.4166C15.497 18.4166 14.0557 17.8196 12.993 16.7569C11.9303 15.6942 11.3333 14.2528 11.3333 12.7499C11.3333 11.247 11.9303 9.80569 12.993 8.74298C14.0557 7.68027 15.497 7.08325 16.9999 7.08325C18.5028 7.08325 19.9442 7.68027 21.0069 8.74298C22.0696 9.80569 22.6666 11.247 22.6666 12.7499ZM19.8333 12.7499C19.8333 13.5014 19.5347 14.222 19.0034 14.7534C18.472 15.2847 17.7514 15.5833 16.9999 15.5833C16.2485 15.5833 15.5278 15.2847 14.9964 14.7534C14.4651 14.222 14.1666 13.5014 14.1666 12.7499C14.1666 11.9985 14.4651 11.2778 14.9964 10.7464C15.5278 10.2151 16.2485 9.91659 16.9999 9.91659C17.7514 9.91659 18.472 10.2151 19.0034 10.7464C19.5347 11.2778 19.8333 11.9985 19.8333 12.7499Z" fill="#81C8F2"/>
<path fill-rule="evenodd" clip-rule="evenodd" d="M17 1.41663C8.39371 1.41663 1.41663 8.39371 1.41663 17C1.41663 25.6062 8.39371 32.5833 17 32.5833C25.6062 32.5833 32.5833 25.6062 32.5833 17C32.5833 8.39371 25.6062 1.41663 17 1.41663ZM4.24996 17C4.24996 19.9608 5.26004 22.6865 6.95296 24.8511C8.14187 23.2898 9.67565 22.0245 11.4345 21.1541C13.1933 20.2836 15.1296 19.8316 17.092 19.8333C19.0291 19.8315 20.941 20.2718 22.6821 21.1207C24.4232 21.9697 25.9476 23.2048 27.139 24.7321C28.3665 23.1222 29.193 21.2432 29.5501 19.2505C29.9071 17.2577 29.7846 15.2086 29.1925 13.2727C28.6004 11.3367 27.5559 9.56961 26.1452 8.11751C24.7346 6.66541 22.9985 5.57009 21.0805 4.92218C19.1625 4.27427 17.1178 4.09239 15.1156 4.39159C13.1134 4.69079 11.2112 5.46247 9.56638 6.64279C7.9216 7.8231 6.58152 9.37811 5.65703 11.1792C4.73254 12.9802 4.25022 14.9755 4.24996 17ZM17 29.75C14.0731 29.7544 11.2345 28.7474 8.96463 26.8996C9.87828 25.5917 11.0944 24.5238 12.5094 23.7868C13.9244 23.0498 15.4966 22.6655 17.092 22.6666C18.6676 22.6654 20.2207 23.04 21.6224 23.7595C23.0241 24.4789 24.234 25.5224 25.1515 26.8033C22.864 28.7111 19.9786 29.7541 17 29.75Z" fill="#81C8F2"/>
</svg>
