<svg width="34" height="34" viewBox="0 0 34 34" fill="none" xmlns="http://www.w3.org/2000/svg">
<path d="M16.8002 9.24164C17.4037 9.25086 18.0031 9.13996 18.5633 8.91537C19.1236 8.69079 19.6336 8.35702 20.0637 7.93349C20.4937 7.50995 20.8352 7.00512 21.0683 6.44835C21.3015 5.89159 21.4215 5.29402 21.4215 4.69042C21.4215 4.08683 21.3015 3.48926 21.0683 2.93249C20.8352 2.37573 20.4937 1.87089 20.0637 1.44736C19.6336 1.02382 19.1236 0.690051 18.5633 0.46547C18.0031 0.240889 17.4037 0.129982 16.8002 0.139203C14.2863 0.139203 12.2474 2.17708 12.2474 4.68989C12.2477 5.89719 12.7275 7.05494 13.5813 7.90853C14.4351 8.76212 15.5929 9.24164 16.8002 9.24164ZM22.806 10.6266H17.4473V14.8766L18.4328 15.1178V14.1323C18.4328 13.4922 19.0161 12.911 20.0807 13.6266C21.5804 14.6375 23.1949 20.3798 21.4439 20.1535C20.5987 20.0457 20.1211 19.6355 19.1903 19.5835C18.4343 19.5447 18.4343 19.2196 18.4333 18.7919C18.4322 18.3643 18.4333 16.9915 18.4333 16.9915V16.2265C18.1045 16.1474 17.776 16.0672 17.4478 15.9859V21.2415C17.4478 21.2415 18.9252 20.2369 19.9819 21.0556C20.6481 21.5735 21.0651 23.0642 19.0044 24.2792C18.5289 24.5687 15.9401 25.2535 15.1278 23.7288H14.2114C14.0125 23.7288 13.8217 23.8079 13.681 23.9485C13.5403 24.0892 13.4613 24.28 13.4613 24.479C13.4613 24.6779 13.5403 24.8687 13.681 25.0094C13.8217 25.15 14.0125 25.2291 14.2114 25.2291H19.6382C20.0507 25.2296 20.4462 25.3938 20.7378 25.6857C21.0294 25.9775 21.1934 26.3731 21.1937 26.7856C21.1934 27.1981 21.0294 27.5936 20.7378 27.8852C20.4461 28.1769 20.0506 28.3409 19.6382 28.3411H14.0228C13.9348 28.348 13.8527 28.3878 13.7927 28.4526C13.7328 28.5174 13.6995 28.6024 13.6995 28.6907C13.6995 28.779 13.7328 28.864 13.7927 28.9288C13.8527 28.9936 13.9348 29.0334 14.0228 29.0403H19.6382C20.4956 29.0403 21.1937 29.7383 21.1937 30.5968C21.1937 31.4553 20.4956 32.1523 19.6382 32.1523H13.0708C12.9108 32.1523 12.7573 32.0887 12.6441 31.9756C12.5309 31.8624 12.4673 31.7089 12.4673 31.5488C12.4673 31.3888 12.5309 31.2353 12.6441 31.1221C12.7573 31.0089 12.9108 30.9453 13.0708 30.9453H19.6382C19.7284 30.9418 19.8139 30.9035 19.8765 30.8383C19.9391 30.7732 19.9741 30.6864 19.9741 30.596C19.9741 30.5057 19.9391 30.4188 19.8765 30.3537C19.8139 30.2886 19.7284 30.2503 19.6382 30.2467H14.0228C13.6105 30.246 13.2153 30.0819 12.9237 29.7904C12.6322 29.4988 12.4681 29.1036 12.4673 28.6912C12.4676 28.2786 12.6315 27.8829 12.9231 27.5909C13.2147 27.2989 13.6102 27.1345 14.0228 27.1336H19.6382C19.7274 27.1287 19.8114 27.0898 19.8728 27.0248C19.9342 26.9599 19.9685 26.874 19.9685 26.7846C19.9685 26.6952 19.9342 26.6092 19.8728 26.5443C19.8114 26.4794 19.7274 26.4405 19.6382 26.4355H14.2114C13.6929 26.4347 13.1959 26.2282 12.8294 25.8614C12.4629 25.4946 12.2569 24.9975 12.2564 24.479C12.2569 23.9604 12.4629 23.4632 12.8294 23.0963C13.1959 22.7294 13.6929 22.5228 14.2114 22.5218H15.4227C15.4307 22.5218 15.437 22.5261 15.445 22.5261H15.8573C16.2578 22.5261 16.2424 22.1021 16.2413 22.1021V16.0491L15.2569 16.3221V16.991C15.2569 16.991 15.258 18.3637 15.2569 18.7914C15.2569 19.219 15.2538 19.5442 14.4999 19.5835C13.5702 19.6355 13.0926 20.0457 12.2453 20.1535C10.4948 20.3793 12.1103 14.6375 13.6069 13.626C14.671 12.9099 15.2569 13.4911 15.2569 14.1318V15.2028L16.2413 14.9308V10.625H11.1185C7.89754 10.625 5.02454 13.235 5.02454 16.4555V30.5692C5.02454 31.6705 5.891 32.5635 6.98963 32.5635C7.25143 32.5635 7.51066 32.5119 7.7525 32.4117C7.99434 32.3114 8.21405 32.1645 8.39907 31.9793C8.58409 31.794 8.73079 31.5742 8.83078 31.3322C8.93077 31.0903 8.9821 30.831 8.98182 30.5692V17.8436H10.6319V33.2504H23.0387V17.8436H24.7063V30.5692C24.7063 31.6705 25.5983 32.5635 26.699 32.5635C27.7998 32.5635 28.6657 31.6705 28.6657 30.5692V16.4555C28.6652 13.2366 26.0259 10.6266 22.806 10.6266Z" fill="#81C8F2"/>
</svg>
