<svg width="23" height="29" viewBox="0 0 23 29" fill="none" xmlns="http://www.w3.org/2000/svg">
<path d="M15.3567 20.2017C19.635 21.0092 22.6667 23.0775 22.6667 25.5V28.3334H0V25.5C0 23.0775 3.03167 21.0092 7.31 20.2017L11.3333 26.9167L15.3567 20.2017ZM5.66667 8.50002H17V11.3334C17 12.8362 16.403 14.2776 15.3403 15.3403C14.2776 16.403 12.8362 17 11.3333 17C9.83044 17 8.3891 16.403 7.32639 15.3403C6.26369 14.2776 5.66667 12.8362 5.66667 11.3334V8.50002ZM5.66667 7.08335L6.2475 1.27502C6.28274 0.92436 6.44741 0.599426 6.70937 0.363667C6.97132 0.127907 7.31175 -0.0017483 7.66417 1.78079e-05H15.0167C15.7392 1.78079e-05 16.3483 0.552518 16.4192 1.27502L17 7.08335H5.66667ZM11.3333 1.41668H9.91667V2.83335H8.5V4.25002H9.91667V5.66668H11.3333V4.25002H12.75V2.83335H11.3333V1.41668Z" fill="black" fill-opacity="0.89"/>
</svg>
