<svg width="34" height="34" viewBox="0 0 34 34" fill="none" xmlns="http://www.w3.org/2000/svg">
<path fill-rule="evenodd" clip-rule="evenodd" d="M22.6666 12.7502C22.6666 14.2531 22.0696 15.6944 21.0069 16.7571C19.9442 17.8198 18.5028 18.4168 16.9999 18.4168C15.497 18.4168 14.0557 17.8198 12.993 16.7571C11.9303 15.6944 11.3333 14.2531 11.3333 12.7502C11.3333 11.2473 11.9303 9.80593 12.993 8.74322C14.0557 7.68052 15.497 7.0835 16.9999 7.0835C18.5028 7.0835 19.9442 7.68052 21.0069 8.74322C22.0696 9.80593 22.6666 11.2473 22.6666 12.7502ZM19.8333 12.7502C19.8333 13.5016 19.5347 14.2223 19.0034 14.7536C18.472 15.285 17.7514 15.5835 16.9999 15.5835C16.2485 15.5835 15.5278 15.285 14.9964 14.7536C14.4651 14.2223 14.1666 13.5016 14.1666 12.7502C14.1666 11.9987 14.4651 11.278 14.9964 10.7467C15.5278 10.2153 16.2485 9.91683 16.9999 9.91683C17.7514 9.91683 18.472 10.2153 19.0034 10.7467C19.5347 11.278 19.8333 11.9987 19.8333 12.7502Z" fill="black" fill-opacity="0.89"/>
<path fill-rule="evenodd" clip-rule="evenodd" d="M17 1.41675C8.39371 1.41675 1.41663 8.39383 1.41663 17.0001C1.41663 25.6063 8.39371 32.5834 17 32.5834C25.6062 32.5834 32.5833 25.6063 32.5833 17.0001C32.5833 8.39383 25.6062 1.41675 17 1.41675ZM4.24996 17.0001C4.24996 19.9609 5.26004 22.6866 6.95296 24.8512C8.14187 23.2899 9.67565 22.0246 11.4345 21.1542C13.1933 20.2837 15.1296 19.8317 17.092 19.8334C19.0291 19.8316 20.941 20.2719 22.6821 21.1209C24.4232 21.9698 25.9476 23.205 27.139 24.7322C28.3665 23.1224 29.193 21.2433 29.5501 19.2506C29.9071 17.2579 29.7846 15.2088 29.1925 13.2728C28.6004 11.3369 27.5559 9.56973 26.1452 8.11763C24.7346 6.66554 22.9985 5.57022 21.0805 4.9223C19.1625 4.27439 17.1178 4.09251 15.1156 4.39171C13.1134 4.69091 11.2112 5.46259 9.56638 6.64291C7.9216 7.82322 6.58152 9.37823 5.65703 11.1793C4.73254 12.9803 4.25022 14.9756 4.24996 17.0001ZM17 29.7501C14.0731 29.7545 11.2345 28.7476 8.96463 26.8997C9.87828 25.5918 11.0944 24.5239 12.5094 23.7869C13.9244 23.0499 15.4966 22.6656 17.092 22.6667C18.6676 22.6655 20.2207 23.0401 21.6224 23.7596C23.0241 24.4791 24.234 25.5225 25.1515 26.8034C22.864 28.7112 19.9786 29.7543 17 29.7501Z" fill="black" fill-opacity="0.89"/>
</svg>
